<?xml version="1.0" encoding="iso-8859-1"?>
<!-- Uploaded to: SVG Repo, www.svgrepo.com, Generator: SVG Repo Mixer Tools -->
<svg height="800px" width="800px" version="1.1" id="Layer_1" xmlns="http://www.w3.org/2000/svg" xmlns:xlink="http://www.w3.org/1999/xlink" 
	 viewBox="0 0 512 512" xml:space="preserve">
<g>
	<path style="fill:#2BA5F7;" d="M194.22,486.409L194.22,486.409c-28.209-28.209-33.729-71.945-13.411-106.278l75.193-127.066
		l75.193,127.066c20.317,34.333,14.798,78.069-13.411,106.278l0,0C283.661,520.531,228.34,520.531,194.22,486.409z"/>
	<path style="fill:#2BA5F7;" d="M356.194,233.344L356.194,233.344c-28.209-28.209-33.729-71.945-13.411-106.278L417.975,0
		l75.193,127.066c20.318,34.333,14.798,78.068-13.411,106.278l0,0C445.637,267.465,390.315,267.465,356.194,233.344z"/>
	<path style="fill:#2BA5F7;" d="M32.245,233.344L32.245,233.344C4.035,205.135-1.484,161.399,18.834,127.066L94.026,0
		l75.193,127.066c20.318,34.333,14.798,78.068-13.411,106.278l0,0C121.686,267.465,66.365,267.465,32.245,233.344z"/>
</g>
<g>
	<path style="fill:#2197D8;" d="M94.028,258.935c-22.368,0-44.723-8.528-61.779-25.584v-0.014
		C4.037,205.139-1.485,161.395,18.828,127.073l75.2-127.066L61.51,127.073c-8.78,34.322-6.389,78.066,5.802,106.264v0.014
		C74.679,250.407,84.353,258.935,94.028,258.935z"/>
	<path style="fill:#2197D8;" d="M417.982,258.935c-22.368,0-44.723-8.528-61.779-25.584v-0.014
		c-28.212-28.198-33.734-71.942-13.421-106.264l75.2-127.066l-32.518,127.066c-8.78,34.322-6.389,78.066,5.802,106.264v0.014
		C398.634,250.407,408.308,258.935,417.982,258.935z"/>
	<path style="fill:#2197D8;" d="M256.007,511.993c-22.368,0-44.723-8.528-61.779-25.584v-0.014
		c-28.212-28.198-33.734-71.942-13.421-106.264l75.2-127.066l-32.518,127.066c-8.78,34.321-6.389,78.066,5.802,106.264v0.014
		C236.658,503.465,246.333,511.993,256.007,511.993z"/>
</g>
</svg>